<svg width="34" height="34" viewBox="0 0 34 34" fill="none" xmlns="http://www.w3.org/2000/svg">
<path d="M34 17C34 21.5408 32.2317 25.8095 29.0208 29.0208C25.8108 32.2309 21.5421 33.9992 17.0021 34H17C12.4592 34 8.18976 32.2317 4.97917 29.0208C1.76833 25.8095 0 21.5408 0 17C0 12.4592 1.76833 8.18976 4.97917 4.97917C8.18976 1.76833 12.4592 0 17 0H17.0021C21.5421 0.000778202 25.8108 1.7691 29.0208 4.97917C32.2317 8.18976 34 12.4592 34 17Z" fill="#FFFEFD"/>
<path d="M23.4255 14.6621C20.6257 16.2678 21.1025 20.9548 24.1395 20.9548C25.4493 20.9548 26.5828 19.9701 27.0875 18.7113C28.2531 15.804 25.8292 13.283 23.4255 14.6621Z" fill="#FF7236"/>
<path d="M20.5497 15.2425C23.9089 15.2425 24.9147 9.53813 21.7233 8.60031C20.2693 8.17317 18.6159 9.19807 18.0848 11.0716C17.489 13.1715 18.6612 15.2425 20.5497 15.2425Z" fill="#FF7236"/>
<path d="M19.6853 25.3964C19.2188 25.2674 18.3908 25.1844 17.5242 25.1724C16.6081 25.1589 15.649 25.2246 15.0284 25.3964C13.3523 25.8633 11.0717 24.7337 11.5721 22.3876C12.035 20.2187 13.698 20.3423 14.0912 18.2868C14.4875 16.2095 16.0273 15.207 17.5242 15.2853C18.9095 15.358 20.2578 16.3571 20.6252 18.2873C21.0162 20.3442 22.6757 20.2194 23.1379 22.3876C23.6401 24.7356 21.3547 25.8591 19.6853 25.3964Z" fill="#FF7236"/>
<path d="M14.6372 15.2427C15.5874 15.2427 16.4034 14.6908 16.8569 13.8462C18.2049 11.3347 15.9909 7.85778 13.4633 8.60239C10.2664 9.5428 11.2798 15.2427 14.6372 15.2427Z" fill="#FF7236"/>
<path d="M13.1189 19.0872C14.1975 16.4482 11.6408 13.2245 9.19906 14.2388C6.25782 15.4604 7.55504 20.7294 10.7891 20.7294C11.8269 20.7294 12.7089 20.0905 13.1189 19.0872Z" fill="#FF7236"/>
<path d="M19.6854 25.3964C19.2189 25.2674 18.3909 25.1843 17.5243 25.1723V15.2853C18.9096 15.358 20.2579 16.357 20.6253 18.2873C21.0163 20.3441 22.6759 20.2194 23.138 22.3876C23.6402 24.7355 21.3548 25.859 19.6854 25.3964Z" fill="#FF7236"/>
</svg>
