<svg width="71" height="63" viewBox="0 0 71 63" fill="none" xmlns="http://www.w3.org/2000/svg">
<path d="M58.5361 13.8711C43.4717 15.1494 32.7609 -3.5545 44.4397 -11.432C49.4767 -14.8295 56.4713 -14.1003 61.7815 -10.7182C74.0454 -2.90674 71.4711 12.7755 58.5361 13.8711Z" fill="#FAC663" fill-opacity="0.15"/>
<path d="M45.9247 19.167C58.843 10.4535 77.9784 29.103 68.2154 40.8763C63.767 46.2397 54.6656 46.709 47.6089 41.1044C39.6972 34.8241 38.6623 24.0655 45.9247 19.167Z" fill="#FAC663" fill-opacity="0.15"/>
<path d="M15.4259 -16.4328C13.977 -14.7421 11.0153 -12.2848 7.71465 -9.99209C4.22761 -7.56585 0.363443 -5.32265 -2.48285 -4.35319C-10.178 -1.74568 -15.925 8.37981 -7.72151 15.8251C-0.136661 22.7073 5.928 17.9331 12.9416 24.5731C20.0253 31.2869 28.6303 31.0288 34.1768 26.8542C39.3097 22.9897 41.8209 15.7694 38.0675 7.62287C34.066 -1.05662 40.782 -4.8966 36.7563 -14.1756C32.4034 -24.2286 20.6075 -22.4874 15.4259 -16.4328Z" fill="#FAC663" fill-opacity="0.15"/>
<path d="M23.1883 34.5018C26.8424 32.0371 31.4576 31.977 35.4621 33.9484C47.3681 39.8115 48.1597 58.5118 36.4466 62.2932C21.6355 67.081 10.2771 43.2105 23.1883 34.5018Z" fill="#FAC663" fill-opacity="0.15"/>
<path d="M7.05969 24.113C18.271 31.1503 17.067 49.7958 4.96213 52.3495C-9.61845 55.426 -18.732 32.4251 -6.2952 24.0364C-2.30394 21.3442 2.79794 21.4376 7.05969 24.113Z" fill="#FAC663" fill-opacity="0.15"/>
</svg>
