<svg width="115" height="115" viewBox="0 0 115 115" fill="none" xmlns="http://www.w3.org/2000/svg">
<path d="M36.3944 34.3414C42.8641 48.0559 28.4315 64.7585 16.7331 56.5672C11.6876 53.0343 9.96721 46.1977 11.4059 40.0049C14.7292 25.7024 30.8411 22.5649 36.3944 34.3414Z" fill="#FAC663" fill-opacity="0.15"/>
<path d="M45.9113 44.3249C32.9713 35.2642 44.4268 10.6578 59.2408 15.6665C65.9897 17.949 69.6044 26.3423 66.6152 34.9653C63.2671 44.632 53.186 49.4186 45.9113 44.3249Z" fill="#FAC663" fill-opacity="0.15"/>
<path d="M21.9516 85.6261C24.0953 86.3895 27.5079 88.3039 30.8786 90.5954C34.4435 93.0148 37.9617 95.8538 39.8905 98.187C45.0921 104.5 56.913 106.316 61.2903 95.9617C65.3361 86.3891 58.5979 82.3776 62.6069 73.4281C66.6632 64.3864 63.4257 56.3852 57.4492 52.6487C51.9172 49.1911 44.0388 49.3887 37.4362 55.8061C30.4025 62.6458 24.3448 57.6907 16.7377 64.7656C8.49313 72.4226 14.2775 82.899 21.9516 85.6261Z" fill="#FAC663" fill-opacity="0.15"/>
<path d="M68.685 60.2723C65.0247 57.7094 63.3643 53.3902 63.8874 48.9254C65.4442 35.65 83.3165 28.2774 91.0519 37.9528C100.839 50.185 81.6179 69.328 68.685 60.2723Z" fill="#FAC663" fill-opacity="0.15"/>
<path d="M64.2021 79.1229C67.1395 66.0847 85.6514 60.6082 92.3315 71.0873C100.378 83.7093 81.2213 100.433 68.7636 91.7098C64.7656 88.9104 63.0853 84.0792 64.2021 79.1229Z" fill="#FAC663" fill-opacity="0.15"/>
</svg>
